<svg width="513" height="109" viewBox="0 0 513 109" fill="none" xmlns="http://www.w3.org/2000/svg">
<path d="M17.424 53.72C14.064 53.72 11.184 53.048 8.784 51.704C6.416 50.328 4.624 48.44 3.408 46.04C2.192 43.608 1.584 40.808 1.584 37.64C1.584 34.44 2.144 31.608 3.264 29.144C4.384 26.68 6.08 24.744 8.352 23.336C10.624 21.928 13.456 21.224 16.848 21.224C19.12 21.224 21.088 21.448 22.752 21.896C24.448 22.312 25.92 22.984 27.168 23.912V28.808H22.128V25.736C20.688 25.096 18.928 24.776 16.848 24.776C13.584 24.776 11.04 25.912 9.216 28.184C7.424 30.456 6.528 33.608 6.528 37.64C6.528 41.576 7.504 44.648 9.456 46.856C11.44 49.064 14.16 50.168 17.616 50.168C19.152 50.168 20.512 50.024 21.696 49.736C22.912 49.448 24.08 48.952 25.2 48.248L27.072 51.224C25.664 52.152 24.208 52.792 22.704 53.144C21.232 53.528 19.472 53.72 17.424 53.72ZM30.3184 49.496H31.7104C32.3504 49.496 32.7984 49.352 33.0544 49.064C33.3424 48.776 33.4864 48.312 33.4864 47.672V27.224C33.4864 26.616 33.3424 26.184 33.0544 25.928C32.7984 25.64 32.3504 25.496 31.7104 25.496H30.3184V21.944H41.5024V25.496H40.3024C39.6944 25.496 39.2464 25.64 38.9584 25.928C38.7024 26.184 38.5744 26.616 38.5744 27.224V35.672H51.6304V27.272C51.6304 26.632 51.5024 26.184 51.2464 25.928C50.9904 25.64 50.5424 25.496 49.9024 25.496H48.6544V21.944H59.8864V25.496H58.4944C57.8544 25.496 57.3904 25.64 57.1024 25.928C56.8464 26.184 56.7184 26.616 56.7184 27.224V47.672C56.7184 48.312 56.8464 48.776 57.1024 49.064C57.3904 49.352 57.8544 49.496 58.4944 49.496H59.8864V53H48.6544V49.496H49.9024C50.5104 49.496 50.9424 49.352 51.1984 49.064C51.4864 48.776 51.6304 48.312 51.6304 47.672V39.176H38.5744V47.672C38.5744 48.312 38.7024 48.776 38.9584 49.064C39.2464 49.352 39.6944 49.496 40.3024 49.496H41.5024V53H30.3184V49.496ZM61.8184 49.496H63.3064C64.0424 49.496 64.6024 49.368 64.9864 49.112C65.4024 48.856 65.7224 48.408 65.9464 47.768L75.1144 21.944H79.9624L89.0344 47.768C89.2584 48.408 89.5784 48.856 89.9944 49.112C90.4104 49.368 90.9864 49.496 91.7224 49.496H93.1624V53H82.2184V49.496H84.6184L82.5064 43.352H72.5224L70.4104 49.496H72.8104V53H61.8184V49.496ZM81.5464 40.328L77.5624 28.616L73.4824 40.328H81.5464ZM95.0996 49.496H96.3956C97.0996 49.496 97.5796 49.352 97.8356 49.064C98.1236 48.776 98.2676 48.328 98.2676 47.72V27.224C98.2676 26.616 98.1236 26.184 97.8356 25.928C97.5796 25.64 97.0996 25.496 96.3956 25.496H95.0996V21.944H110.796C114.028 21.944 116.54 22.744 118.332 24.344C120.124 25.912 121.02 28.152 121.02 31.064C121.02 33.464 120.364 35.464 119.052 37.064C117.74 38.632 115.884 39.64 113.484 40.088L117.708 47.96C118.028 48.536 118.396 48.936 118.812 49.16C119.26 49.384 119.82 49.496 120.492 49.496H121.788V53H111.276V49.496H113.58L108.78 40.568H103.356V47.816C103.356 48.424 103.468 48.856 103.692 49.112C103.948 49.368 104.396 49.496 105.036 49.496H106.14V53H95.0996V49.496ZM110.028 37.016C112.044 37.016 113.548 36.504 114.54 35.48C115.564 34.456 116.076 32.984 116.076 31.064C116.076 29.08 115.596 27.656 114.636 26.792C113.676 25.928 112.14 25.496 110.028 25.496H103.356V37.016H110.028ZM124.959 49.544H125.967C126.671 49.544 127.151 49.4 127.407 49.112C127.695 48.824 127.839 48.36 127.839 47.72V27.176C127.839 26.568 127.695 26.136 127.407 25.88C127.151 25.592 126.703 25.448 126.063 25.448H124.959V21.944H135.807V25.448H134.655C134.047 25.448 133.599 25.592 133.311 25.88C133.055 26.136 132.927 26.568 132.927 27.176V49.544H141.231C141.871 49.544 142.335 49.416 142.623 49.16C142.911 48.872 143.055 48.408 143.055 47.768V46.232H147.663V53H124.959V49.544ZM148.678 49.496H150.07C150.71 49.496 151.158 49.352 151.414 49.064C151.702 48.776 151.846 48.312 151.846 47.672V27.224C151.846 26.616 151.702 26.184 151.414 25.928C151.158 25.64 150.71 25.496 150.07 25.496H148.678V21.944H171.67V28.136H167.062V27.176C167.062 26.568 166.918 26.136 166.63 25.88C166.342 25.592 165.878 25.448 165.238 25.448H156.934V35.672H165.238V39.224H156.934V49.496H165.238C165.878 49.496 166.342 49.368 166.63 49.112C166.918 48.824 167.062 48.36 167.062 47.72V46.76H171.67V53H148.678V49.496ZM186.402 53.72C184.162 53.72 182.034 53.4 180.018 52.76C178.002 52.12 176.274 51.256 174.834 50.168V45.464H179.97V48.584C180.77 49.064 181.746 49.448 182.898 49.736C184.082 50.024 185.282 50.168 186.498 50.168C188.418 50.168 189.874 49.768 190.866 48.968C191.858 48.136 192.354 46.968 192.354 45.464C192.354 44.408 192.082 43.528 191.538 42.824C191.026 42.12 190.29 41.512 189.33 41C188.37 40.488 187.042 39.896 185.346 39.224C182.978 38.296 181.074 37.416 179.634 36.584C178.194 35.752 177.074 34.776 176.274 33.656C175.506 32.504 175.122 31.112 175.122 29.48C175.122 26.76 176.162 24.712 178.242 23.336C180.322 21.928 182.994 21.224 186.258 21.224C188.402 21.224 190.354 21.528 192.114 22.136C193.906 22.744 195.442 23.544 196.722 24.536V29H191.586V26.024C190.178 25.192 188.322 24.776 186.018 24.776C184.162 24.776 182.706 25.144 181.65 25.88C180.594 26.616 180.066 27.768 180.066 29.336C180.066 30.424 180.402 31.336 181.074 32.072C181.746 32.808 182.514 33.384 183.378 33.8C184.242 34.216 185.586 34.792 187.41 35.528C189.842 36.488 191.714 37.336 193.026 38.072C194.338 38.808 195.378 39.752 196.146 40.904C196.914 42.024 197.298 43.48 197.298 45.272C197.298 46.904 196.866 48.36 196.002 49.64C195.17 50.888 193.938 51.88 192.306 52.616C190.674 53.352 188.706 53.72 186.402 53.72ZM233.096 53.72C229.736 53.72 226.856 53.048 224.456 51.704C222.088 50.328 220.296 48.44 219.08 46.04C217.864 43.608 217.256 40.808 217.256 37.64C217.256 34.44 217.816 31.608 218.936 29.144C220.056 26.68 221.752 24.744 224.024 23.336C226.296 21.928 229.128 21.224 232.52 21.224C234.792 21.224 236.76 21.448 238.424 21.896C240.12 22.312 241.592 22.984 242.84 23.912V28.808H237.8V25.736C236.36 25.096 234.6 24.776 232.52 24.776C229.256 24.776 226.712 25.912 224.888 28.184C223.096 30.456 222.2 33.608 222.2 37.64C222.2 41.576 223.176 44.648 225.128 46.856C227.112 49.064 229.832 50.168 233.288 50.168C234.824 50.168 236.184 50.024 237.368 49.736C238.584 49.448 239.752 48.952 240.872 48.248L242.744 51.224C241.336 52.152 239.88 52.792 238.376 53.144C236.904 53.528 235.144 53.72 233.096 53.72ZM244.771 49.496H246.26C246.996 49.496 247.556 49.368 247.94 49.112C248.356 48.856 248.676 48.408 248.9 47.768L258.068 21.944H262.916L271.988 47.768C272.212 48.408 272.532 48.856 272.948 49.112C273.364 49.368 273.94 49.496 274.676 49.496H276.116V53H265.172V49.496H267.572L265.46 43.352H255.476L253.364 49.496H255.764V53H244.771V49.496ZM264.5 40.328L260.516 28.616L256.436 40.328H264.5ZM278.053 49.448H279.445C280.085 49.448 280.533 49.32 280.789 49.064C281.077 48.776 281.221 48.328 281.221 47.72V27.224C281.221 26.616 281.077 26.184 280.789 25.928C280.533 25.64 280.085 25.496 279.445 25.496H278.053V21.944H285.205L299.845 44.648V27.224C299.845 26.616 299.701 26.184 299.413 25.928C299.125 25.64 298.677 25.496 298.069 25.496H296.629V21.944H308.053V25.496H306.613C306.005 25.496 305.557 25.64 305.269 25.928C305.013 26.184 304.885 26.616 304.885 27.224V53H300.901L286.261 30.344V47.72C286.261 48.328 286.405 48.776 286.693 49.064C286.981 49.32 287.429 49.448 288.037 49.448H289.429V53H278.053V49.448ZM317.624 49.448H318.92C319.624 49.448 320.104 49.32 320.36 49.064C320.648 48.776 320.792 48.328 320.792 47.72V25.544H316.376C315.736 25.544 315.272 25.688 314.984 25.976C314.696 26.232 314.552 26.664 314.552 27.272V28.808H310.76V21.992H335.864V28.808H332.072V27.272C332.072 26.632 331.928 26.184 331.64 25.928C331.384 25.672 330.92 25.544 330.248 25.544H325.88V47.72C325.88 48.328 326.008 48.776 326.264 49.064C326.552 49.32 327.048 49.448 327.752 49.448H329.048V53H317.624V49.448ZM338.568 49.496H339.96C340.6 49.496 341.048 49.352 341.304 49.064C341.592 48.776 341.736 48.312 341.736 47.672V27.224C341.736 26.616 341.592 26.184 341.304 25.928C341.048 25.64 340.6 25.496 339.96 25.496H338.568V21.944H349.944V25.496H348.552C347.944 25.496 347.496 25.64 347.208 25.928C346.952 26.184 346.824 26.616 346.824 27.224V47.72C346.824 48.36 346.952 48.824 347.208 49.112C347.496 49.368 347.944 49.496 348.552 49.496H349.944V53H338.568V49.496ZM353.1 49.448H354.492C355.132 49.448 355.58 49.32 355.836 49.064C356.124 48.776 356.268 48.328 356.268 47.72V27.224C356.268 26.616 356.124 26.184 355.836 25.928C355.58 25.64 355.132 25.496 354.492 25.496H353.1V21.944H360.252L374.892 44.648V27.224C374.892 26.616 374.748 26.184 374.46 25.928C374.172 25.64 373.724 25.496 373.116 25.496H371.676V21.944H383.1V25.496H381.66C381.052 25.496 380.604 25.64 380.316 25.928C380.06 26.184 379.932 26.616 379.932 27.224V53H375.948L361.308 30.344V47.72C361.308 48.328 361.452 48.776 361.74 49.064C362.028 49.32 362.476 49.448 363.084 49.448H364.476V53H353.1V49.448Z" fill="white"/>
<path d="M260.744 63H262.328C266.104 63 269.048 64.008 271.16 66.024C273.272 68.008 274.328 70.68 274.328 74.04C274.328 76.376 273.816 78.456 272.792 80.28C271.768 82.072 270.376 83.464 268.616 84.456C266.856 85.416 264.888 85.896 262.712 85.896H262.328V99H260.744V63ZM262.808 84.504C265.72 84.504 268.104 83.608 269.96 81.816C271.816 79.992 272.744 77.432 272.744 74.136C272.744 71 271.864 68.6 270.104 66.936C268.376 65.24 265.912 64.392 262.712 64.392H262.328V84.504H262.808ZM279.055 77.4H280.591V82.392C281.231 80.824 282.159 79.592 283.375 78.696C284.623 77.8 286.031 77.352 287.599 77.352C288.591 77.352 289.599 77.56 290.623 77.976V79.752C289.695 79.048 288.655 78.696 287.503 78.696C286.351 78.696 285.231 79.048 284.143 79.752C283.087 80.456 282.223 81.4 281.551 82.584C280.911 83.768 280.591 85.032 280.591 86.376V99H279.055V77.4ZM303.489 98.232C305.153 98.232 306.737 97.8 308.241 96.936C309.745 96.072 310.993 94.888 311.985 93.384V95.832C310.801 97.144 309.505 98.104 308.097 98.712C306.689 99.288 305.089 99.576 303.297 99.576C301.313 99.576 299.441 99.048 297.681 97.992C295.953 96.936 294.561 95.528 293.505 93.768C292.481 92.008 291.969 90.136 291.969 88.152C291.969 86.008 292.481 84.088 293.505 82.392C294.529 80.664 295.921 79.32 297.681 78.36C299.473 77.4 301.457 76.92 303.633 76.92C306.961 76.92 309.793 78.232 312.129 80.856L297.057 95.736C298.113 96.6 299.137 97.24 300.129 97.656C301.121 98.04 302.241 98.232 303.489 98.232ZM293.505 88.008C293.505 90.664 294.385 92.936 296.145 94.824L310.209 80.856C309.153 79.928 308.129 79.272 307.137 78.888C306.145 78.472 304.961 78.264 303.585 78.264C301.633 78.264 299.889 78.696 298.353 79.56C296.849 80.392 295.665 81.544 294.801 83.016C293.937 84.488 293.505 86.152 293.505 88.008ZM322.162 99.528C320.626 99.528 319.266 99.272 318.082 98.76C316.898 98.216 316.05 97.528 315.538 96.696V94.152C316.146 95.528 316.978 96.552 318.034 97.224C319.09 97.864 320.434 98.184 322.066 98.184C323.634 98.184 324.898 97.704 325.858 96.744C326.818 95.752 327.298 94.488 327.298 92.952C327.298 91.64 327.026 90.632 326.482 89.928C325.938 89.192 325.058 88.456 323.842 87.72L322.018 86.664C320.706 85.864 319.714 85.24 319.042 84.792C318.402 84.312 317.89 83.784 317.506 83.208C317.122 82.6 316.93 81.896 316.93 81.096C316.93 79.816 317.378 78.792 318.274 78.024C319.17 77.256 320.338 76.872 321.778 76.872C323.538 76.872 325.01 77.272 326.194 78.072V80.184C325.202 78.872 323.778 78.216 321.922 78.216C320.898 78.216 320.066 78.472 319.426 78.984C318.786 79.496 318.466 80.152 318.466 80.952C318.466 81.656 318.658 82.28 319.042 82.824C319.426 83.336 319.954 83.816 320.626 84.264C321.33 84.712 322.482 85.384 324.082 86.28C325.714 87.208 326.914 88.168 327.682 89.16C328.45 90.12 328.834 91.384 328.834 92.952C328.834 94.936 328.178 96.536 326.866 97.752C325.586 98.936 324.018 99.528 322.162 99.528ZM341.346 99.288C338.978 99.288 337.01 98.568 335.442 97.128C333.906 95.688 333.138 93.704 333.138 91.176V68.712H334.674V77.4H341.298V78.744H334.674V91.176C334.674 93.288 335.298 94.952 336.546 96.168C337.826 97.352 339.426 97.944 341.346 97.944V99.288ZM355.559 99.528C353.511 99.528 351.607 99.016 349.847 97.992C348.087 96.968 346.695 95.592 345.671 93.864C344.647 92.104 344.135 90.216 344.135 88.2C344.135 86.184 344.647 84.312 345.671 82.584C346.695 80.824 348.087 79.432 349.847 78.408C351.607 77.384 353.511 76.872 355.559 76.872C357.639 76.872 359.607 77.432 361.463 78.552C363.319 79.64 364.615 81.064 365.351 82.824V77.4H366.887V99H365.351V93.624C364.487 95.416 363.143 96.856 361.319 97.944C359.527 99 357.607 99.528 355.559 99.528ZM355.655 98.184C357.415 98.184 359.047 97.736 360.551 96.84C362.055 95.912 363.239 94.696 364.103 93.192C364.999 91.656 365.447 89.992 365.447 88.2C365.447 86.44 364.999 84.792 364.103 83.256C363.207 81.72 362.007 80.504 360.503 79.608C358.999 78.68 357.367 78.216 355.607 78.216C353.847 78.216 352.199 78.68 350.663 79.608C349.159 80.536 347.943 81.768 347.015 83.304C346.119 84.84 345.671 86.488 345.671 88.248C345.671 90.008 346.119 91.656 347.015 93.192C347.943 94.696 349.175 95.912 350.711 96.84C352.247 97.736 353.895 98.184 355.655 98.184ZM380.674 99.288C378.306 99.288 376.338 98.568 374.77 97.128C373.234 95.688 372.466 93.704 372.466 91.176V68.712H374.002V77.4H380.626V78.744H374.002V91.176C374.002 93.288 374.626 94.952 375.874 96.168C377.154 97.352 378.754 97.944 380.674 97.944V99.288ZM386.584 72.456C386.136 72.456 385.736 72.296 385.384 71.976C385.064 71.656 384.904 71.256 384.904 70.776C384.904 70.328 385.064 69.944 385.384 69.624C385.736 69.304 386.136 69.144 386.584 69.144C387.032 69.144 387.416 69.304 387.736 69.624C388.088 69.944 388.264 70.328 388.264 70.776C388.264 71.256 388.088 71.656 387.736 71.976C387.416 72.296 387.032 72.456 386.584 72.456ZM385.816 77.4H387.352V99H385.816V77.4ZM404.78 99.768C402.604 99.768 400.636 99.24 398.876 98.184C397.116 97.096 395.74 95.672 394.748 93.912C393.756 92.12 393.26 90.184 393.26 88.104C393.26 86.056 393.756 84.152 394.748 82.392C395.772 80.632 397.148 79.24 398.876 78.216C400.636 77.16 402.588 76.632 404.732 76.632C406.844 76.632 408.764 77.16 410.492 78.216C412.252 79.24 413.628 80.632 414.62 82.392C415.612 84.152 416.108 86.056 416.108 88.104C416.108 90.248 415.628 92.216 414.668 94.008C413.708 95.768 412.364 97.176 410.636 98.232C408.94 99.256 406.988 99.768 404.78 99.768ZM404.78 98.424C406.604 98.424 408.268 97.96 409.772 97.032C411.276 96.104 412.444 94.872 413.276 93.336C414.14 91.768 414.572 90.056 414.572 88.2C414.572 86.376 414.14 84.68 413.276 83.112C412.412 81.544 411.228 80.296 409.724 79.368C408.22 78.44 406.556 77.976 404.732 77.976C402.908 77.976 401.228 78.456 399.692 79.416C398.188 80.344 396.988 81.592 396.092 83.16C395.228 84.728 394.796 86.424 394.796 88.248C394.796 90.072 395.228 91.768 396.092 93.336C396.988 94.872 398.188 96.104 399.692 97.032C401.228 97.96 402.924 98.424 404.78 98.424ZM420.43 77.4H421.966V82.2C422.67 80.6 423.87 79.32 425.566 78.36C427.262 77.368 429.134 76.872 431.182 76.872C433.838 76.872 435.934 77.72 437.47 79.416C439.038 81.08 439.822 83.416 439.822 86.424V99H438.286V86.424C438.286 83.832 437.646 81.816 436.366 80.376C435.118 78.936 433.358 78.216 431.086 78.216C429.422 78.216 427.886 78.6 426.478 79.368C425.102 80.104 423.998 81.128 423.166 82.44C422.366 83.752 421.966 85.24 421.966 86.904V99H420.43V77.4ZM451.115 99.528C449.579 99.528 448.219 99.272 447.035 98.76C445.851 98.216 445.003 97.528 444.491 96.696V94.152C445.099 95.528 445.931 96.552 446.987 97.224C448.043 97.864 449.387 98.184 451.019 98.184C452.587 98.184 453.851 97.704 454.811 96.744C455.771 95.752 456.251 94.488 456.251 92.952C456.251 91.64 455.979 90.632 455.435 89.928C454.891 89.192 454.011 88.456 452.795 87.72L450.971 86.664C449.659 85.864 448.667 85.24 447.995 84.792C447.355 84.312 446.843 83.784 446.459 83.208C446.075 82.6 445.883 81.896 445.883 81.096C445.883 79.816 446.331 78.792 447.227 78.024C448.123 77.256 449.291 76.872 450.731 76.872C452.491 76.872 453.963 77.272 455.147 78.072V80.184C454.155 78.872 452.731 78.216 450.875 78.216C449.851 78.216 449.019 78.472 448.379 78.984C447.739 79.496 447.419 80.152 447.419 80.952C447.419 81.656 447.611 82.28 447.995 82.824C448.379 83.336 448.907 83.816 449.579 84.264C450.283 84.712 451.435 85.384 453.035 86.28C454.667 87.208 455.867 88.168 456.635 89.16C457.403 90.12 457.787 91.384 457.787 92.952C457.787 94.936 457.131 96.536 455.819 97.752C454.539 98.936 452.971 99.528 451.115 99.528Z" fill="#CF8366"/>
</svg>
